PathFileType	3	(X/Y/Z)	D:\Jess\PFP\Labelled\PA12\20250811\SRRun01.trc
DataRate	CameraRate	NumFrames	NumMarkers	Units	OrigDataRate	OrigDataStartFrame	OrigNumFrames
250.0	250.0	4	37	mm	250.0	36563	2501
Frame#	Time	C7			T10			CLAV			LSHO			RSHO			LASIS			RASIS			LPSIS			RPSIS			LILCR			RILCR			LGTR			LTHI			LLTHI			LLEP			LMEP			LPSH			LLSH			LDSH			LLMAL			LMMAL			LTOE			L5TH			LHEE			RGTR			RTHI			RLTHI			RLEP			RMEP			RPSH			RLSH			RDSH			RLMAL			RMMAL			RTOE			R5TH			RHEE			
		X1	Y1	Z1	X2	Y2	Z2	X3	Y3	Z3	X4	Y4	Z4	X5	Y5	Z5	X6	Y6	Z6	X7	Y7	Z7	X8	Y8	Z8	X9	Y9	Z9	X10	Y10	Z10	X11	Y11	Z11	X12	Y12	Z12	X13	Y13	Z13	X14	Y14	Z14	X15	Y15	Z15	X16	Y16	Z16	X17	Y17	Z17	X18	Y18	Z18	X19	Y19	Z19	X20	Y20	Z20	X21	Y21	Z21	X22	Y22	Z22	X23	Y23	Z23	X24	Y24	Z24	X25	Y25	Z25	X26	Y26	Z26	X27	Y27	Z27	X28	Y28	Z28	X29	Y29	Z29	X30	Y30	Z30	X31	Y31	Z31	X32	Y32	Z32	X33	Y33	Z33	X34	Y34	Z34	X35	Y35	Z35	X36	Y36	Z36	X37	Y37	Z37	

1564	146.248	871.7722377391806	1577.284385331423	-284.2781430960325	782.838187947823	1298.72561529717	-323.1368490999794	1034.220906779625	1457.375363138073	-264.156235209219	950.3450523542533	1590.531642578189	-423.7061738437324	910.8593357548565	1544.509379411348	-127.2939519471838	965.4775256687567	1022.517830745558	-445.7585432121764	988.661615526708	1029.761567180544	-214.5155092310841	769.79000132957	1103.802143387524	-325.4799284272827	771.6094163939587	1103.170803246216	-282.8333871248454	911.4252181670741	1125.198874823915	-496.3149317397695	884.4392122285252	1128.022169366124	-127.3925810101547	860.9141879730751	913.9497111881775	-503.3636089315532	916.2486827386859	733.3117257481756	-393.0941363667851	762.6232711142854	676.942984570406	-445.8053702907551	693.2978723405499	559.2802339270032	-417.5209705095243	nan	nan	nan	709.9156676865753	467.9611781965834	-354.2750379804729	585.3070848685877	388.3077077418046	-400.3436400687115	594.4745624789174	263.8582884811869	-322.351555154396	497.0563490201987	187.1290533337074	-343.326753402516	nan	nan	nan	597.6436853314274	61.4089970956601	-321.9942177182832	551.0634460611453	55.11411579133323	-362.3183283316166	423.0439956025091	208.8555432243367	-292.8594200152989	917.2010151336782	951.3788311407983	-111.0395636253106	1119.722645811762	845.0298171639982	-235.8768597245172	1053.604004307287	713.1496157809858	-159.7922424819672	1089.508780048211	602.8649245111275	-179.6302612733562	nan	nan	nan	1128.072929590371	499.4482198708947	-240.6250954525187	1031.444175813146	410.3586421134475	-161.4468500321233	1055.061366620933	274.2535936082555	-225.6596498459053	991.0309655912683	181.3619935048353	-183.6204705122371	nan	nan	nan	1130.937550031411	123.2217689692056	-183.6426875536451	1091.559265647597	97.08667746520615	-143.3397281474692	903.1465853388978	149.0059273103332	-241.211003643125	
1565	146.252	872.2097492469402	1579.181632313327	-284.7079987242779	783.7315286172955	1300.807713175328	-324.6226880965036	1034.272816132285	1460.066060537456	-263.5454043408951	951.3272191757081	1592.825385492155	-423.1814484310799	910.1515691723225	1546.615153283517	-127.8680729694561	966.5926482242711	1024.304807805071	-445.3423729315384	989.8312818101449	1032.702072874461	-214.3805723462483	771.2486397442649	1106.288662629264	-325.7830205519492	772.8640318719059	1105.879739314774	-283.1503082690704	913.8378313936523	1127.218200610889	-496.0858026509332	885.7882057000677	1131.852821611485	-127.6849410735706	861.0200534948107	916.0741503710359	-503.5735989797269	914.0963736748072	734.4788419136312	-393.8644592645251	759.1554052819671	680.5660941969888	-446.219140370962	688.1796259765091	563.8156730635794	-418.0388566159724	nan	nan	nan	705.1374915418052	471.7481978964015	-355.7163196791514	579.6602344609194	393.0601353238547	-401.0619169198475	589.5834565185478	267.2595874170817	-324.3337395623332	492.0006040525511	191.0852501244171	-344.9507868101593	nan	nan	nan	589.1356861910855	61.847762847357	-322.772379022018	542.1245127948215	56.59784080346667	-362.6715010926102	419.0879831214842	215.3430987700052	-294.3936150083182	917.9609665893704	955.2153528619087	-110.9649181057069	1119.452245245192	847.0981692184026	-236.4395338214249	1052.1163683211	714.8798540673138	-160.7128098139927	1087.705184662755	602.9874759052296	-179.890990872588	nan	nan	nan	1129.260253592059	500.3889453078242	-241.1708023725605	1036.245393685596	407.4361373687598	-162.4373594694273	1064.781917820542	272.6601011754418	-227.5419981358365	1004.690672401169	177.0477438947736	-186.0558087251126	nan	nan	nan	1146.612395249204	124.3882661943198	-187.1513610424062	1108.474025179113	96.15075570890114	-146.988549107006	917.8550607316511	142.0737673722414	-243.4918234314776	
1566	146.256	872.6541806529657	1580.974963861835	-285.1544160748042	784.60957644008	1302.795000356424	-325.9904050907267	1034.322299120388	1462.61833700686	-263.0259334828731	952.2529473965941	1594.965904886215	-422.6808027125185	909.5599123113615	1548.606018627719	-128.460097812553	967.7143568379101	1026.014775226057	-444.9164909605484	990.9870036452807	1035.472138981602	-214.2107733483801	772.7190697240719	1108.664920737157	-326.0994983110862	774.1205718624543	1108.469000893425	-283.4885117681574	916.1684093031772	1129.149716599082	-495.8684290664528	887.0913776544724	1135.485414211673	-127.9810399917393	861.1442767476414	918.1679777351193	-503.8185727783963	912.1255346813838	735.6363456936392	-394.8094295966214	755.9564922598225	684.1070257243371	-446.6542810420655	683.4844360982015	568.2036493090299	-418.5608784537162	nan	nan	nan	700.7679896136638	475.3644946083912	-357.1400451138263	574.3453355047533	397.7097342055839	-401.766506524674	584.8670174097517	270.5808506300655	-326.3033898745971	487.0458229848189	195.0836717427916	-346.5720585423277	nan	nan	nan	580.6787987774512	62.398615106203	-323.5976319196312	533.2212141101384	58.264746236364	-363.0192623849571	415.3327004629134	221.8564245254384	-295.9250457655702	918.5793408980803	958.8076685175888	-110.9459917605925	1119.06219290176	848.7562373291157	-236.9567696685283	1050.539440755297	716.3578999799531	-161.4590908328422	1085.814519245194	602.8091075434501	-180.0533025911113	nan	nan	nan	1130.258651849662	501.1391329236502	-241.6671614093075	1040.918976692195	404.5395014307015	-163.4235494878181	1074.238027699893	271.277081829021	-229.4373534558742	1018.12271115922	173.1303374032198	-188.5546737325723	nan	nan	nan	1161.825831940939	125.9644997370204	-190.6812676760459	1124.987563475421	95.69026996771689	-150.6783958861487	932.4174032075075	135.6276406348522	-245.8593999516684	
1567	146.26	873.1044810438636	1582.663223613618	-285.6154806920566	785.466830379588	1304.681229302612	-327.2311338179342	1034.3724150131	1465.021711743232	-262.5901181512425	953.1234168407585	1596.945356035654	-422.2071129852864	909.0792521794164	1550.478111199137	-129.0658330790394	968.8417604439394	1027.649450956608	-444.4846433396547	992.1164919555622	1038.056044918563	-214.0105279525866	774.1888695079201	1110.925934631993	-326.4287217212295	775.370541059852	1110.930460819438	-283.8466232707695	918.4082952127984	1130.995195994367	-495.6623825535985	888.3405394532166	1138.905192637048	-128.2771507849511	861.2873598122109	920.2250488259441	-504.0889022173926	910.3549511601689	736.7761599061535	-395.9062436610477	753.0542479447194	687.5337324181701	-447.1050620800822	679.2473287732414	572.3982822384716	-419.0829106506471	nan	nan	nan	696.8156264444389	478.7716268335831	-358.5285071395944	569.3752492723958	402.2266543115513	-402.4537354934741	580.3063251039955	273.811788115827	-328.2444860157983	482.1616244292879	199.1248300612049	-348.1734771478418	nan	nan	nan	572.247988949907	63.07996500882153	-324.4826508756017	524.3306712738358	60.12993188801015	-363.3680497248218	411.7499207196794	228.3778304039546	-297.4238780024404	919.0593324268973	962.1385264499311	-110.9776448547803	1118.540615255054	849.9774563450874	-237.4464318618981	1048.894546854586	717.5758695422824	-162.0144745356017	1083.860379839438	602.350276915192	-180.1230347780112	nan	nan	nan	1131.078093522792	501.7103799820018	-242.1227689754493	1045.445779601806	401.6933802966558	-164.4074736668778	1083.393276413017	270.1087077255943	-231.3382025966004	1031.264428979606	169.6139407029687	-191.1061586994877	nan	nan	nan	1176.520679122722	127.9268655622223	-194.2126749930275	1141.0326717318	95.68703573347544	-154.3903876964835	946.7624245842134	129.676151754374	-248.3057752665685	
